<svg xmlns="http://www.w3.org/2000/svg" width="300" height="231">
  <path fill="#c01" d="M136.981 200.221h-5.245l.382-1.238h5.235zM247.111 10.71a7.122 7.122 0 0 0 4.007-.868s3.2-1.91 5.874 0a6.852 6.852 0 0 1 6.453-.061s2.778 1.414 4.687 1.032v.258l2.15.186V13h1.196v3.221h-1.219v.785h1.219v3.232h-1.219v1.414h1.219v3.098h-1.219v1.29h1.219v3.191h-1.219v1.033H258.8a3.987 3.987 0 0 1-3.386 0h-10.81v-1.353l-1.23-.093.516.32-1.032 1.033-1.786-1.55-.866-.061s-.745-.424 0-.97l.834-.104 1.746-1.538 1.198 1.032-.62.072v.351l1.199-.165v-2.87l-1.292-.124.547.382-1.032 1.105-1.714-1.725h-.774s-.869-.516 0-1.032l.805-.062 1.714-1.58 1.156 1.033-.608.32 1.258-.062v-2.943l-1.487-.237.682.392-1.032 1.033-1.714-1.425-.837-.062s-.806-.424 0-1.033h.805l1.746-1.641 1.126 1.032-.805.382 1.485-.124v-2.85l-1.29-.092.64.258-1.156 1.156-1.517-1.476h-.868s-1.032-.341 0-1.033l.496-.072 1.952-1.704 1.083 1.033-.805.485 1.488-.103v-2.303l2.517-.144zm-1.31 17.656 1.25-1.29V12.318l-1.293.104zm9.354.712 1.155-2.395c-7.155 1.58-8.517 1.105-8.517 1.105l-1.261 1.321zm1.909-1.518-.97 1.931a3.097 3.097 0 0 0 2.065 0zm.61-.94 1.382 2.49h9.366l-1.394-1.23a27.69 27.69 0 0 1-7.682-1.032c-.552-.092-1.11-.15-1.672-.176zm10.49.868.9.816v-15.88l-.9-.104zm-20.041-.671c1.45-.008 2.896-.16 4.317-.454 2.198-.413 4.068-.744 4.068-.744V11.741l.516-.609.516.61v13.814c1.608.192 3.206.482 4.781.868 1.58.34 3.195.482 4.81.423v-14.91a11.359 11.359 0 0 1-4.13-1.26 6.265 6.265 0 0 0-5.926.331 4.797 4.797 0 0 0-5.349-.279 7.934 7.934 0 0 1-3.603 1.033zM299.77 37.51c.195 59.969-42.52 68.59-42.52 68.59s-42.52-9.024-42.52-68.59V3.015h85.04zM216.54 4.72v31.388s2.827 2.292 5.16 2.21c0 0 1.809.598 4.75-2.489 0 0 2.614-3.046 5.525-3.025 0 0 1.714-.516 5.865 2.499 0 0 2.88 3.097 6.38 3.097 0 0 3.046.207 6.434-2.973 0 0 2.87-2.633 6.195-2.705 0 0 2.488-.465 6.412 2.787 0 0 2.921 2.902 6.433 2.891a8.605 8.605 0 0 0 6.195-3.345s2.858-2.86 5.874-2.788a8.594 8.594 0 0 1 5.813 2.788s3.314 3.552 5.875 3.242c0 0 3.026 0 4.46-2.21V4.802Zm40.163 33.825h-.878v8.776h.878zm1.891 0h-.88v8.776h.92zm.909-.816c.173-.35.265-.734.267-1.125a2.517 2.517 0 0 0-4.236-1.677 2.51 2.51 0 0 0-.792 1.677c.002.386.09.767.258 1.115h1.703a1.26 1.26 0 0 1-.483-.434 1.26 1.26 0 0 1-.197-.618 1.244 1.244 0 0 1 1.207-1.293 1.24 1.24 0 0 1 1.27 1.23 1.228 1.228 0 0 1-.702 1.115zm-11.575 40.795v3.407h20.278s1.694 7.476 6.195 8.064v-3.242s-1.27.31-2.178-2.013l-1.199-3.439s5.06-1.755 7.652-4.501l-2.973-1.704a22.47 22.47 0 0 1-5.556 2.984L268.96 74.3l-2.995.64 1.146 3.573zm3.408 4.233v1.157h6.814v-1.177zm-3.222-.093v6.908H263.6s.828-.052.796-.785c0 0 .135-.547-.65-1.321l-4.544-4.833v2.313h-8.827v-2.261zm-2.406 7.94v1.116h23.923l-8.322-9.066h-.61l4.13 4.47a2.49 2.49 0 0 1 .444 2.385s-.32.982-1.88 1.085zm35.766-13.102c2.436 1.032 3.15-.238 3.15-.238.938-1.714-1.136-3.004-1.136-3.004l-7.992-4.595c-2.241-.63-2.82.723-2.82.723a2.158 2.158 0 0 0 .828 2.715zm-34.383 3.552v-2.644a89.603 89.603 0 0 0-8.652-3.624s1.187-1.425 1.59-1.827a51.315 51.315 0 0 1 8.59 4.822h3.345a51.556 51.556 0 0 0-23.624-10.46s-.887-.227-1.196.919c-.052.272.002.552.15.786.146.234.377.403.644.474 1.75.25 3.476.64 5.163 1.166l-2.23 2.282s-3.274-.62-5.008-.826a1.175 1.175 0 0 0-1.207 1.136s-.135.981.66 1.26c.04 0 11.698.547 21.775 6.536zm-3.097-26.547a2.407 2.407 0 0 1 2.56-.299 1.365 1.365 0 0 1 1.219.3 2.28 2.28 0 0 1 .02-1.1c.094-.36.276-.691.527-.965a1.229 1.229 0 0 0 .103.997c.086.15.205.279.346.379.139.1.3.17.469.203-1.342.868 0 1.528 0 1.528-1.454.878-.112 1.55-.112 1.55-1.032.908.238 1.032.238 1.032-.393 2.065 1.032 2.612 1.032 2.612a.768.768 0 0 1-.507 0 19.864 19.864 0 0 1 0 6.64 1.107 1.107 0 0 1 0 .928c.3.837-.64.868-.64.868a5.137 5.137 0 0 1-.754 1.352l.352.465.804-1.033.208.197-.61 1.208 1.032-.207a1.594 1.594 0 0 0 1.032-1.404c-.547-1.662.404-2.2.404-2.2-.734-2.312.31-7.227.31-7.227 1.528-.165.722-1.962.722-1.962 1.095-.588.258-1.807.258-1.807.92-.506.25-1.807.25-1.807.928-.63.38-2.137.38-2.137 1.033-.423.29-1.724.29-1.724.846-.548 0-2.014 0-2.014.754.248 1.032-1.032 1.032-1.032v-9.81a2.352 2.352 0 0 0-.985.32c-.3.18-.556.423-.749.714a1.883 1.883 0 0 0-1.129.365c-.327.24-.57.579-.688.966a1.982 1.982 0 0 0-1.89 1.59c-1.467 0-1.467 1.807-1.467 1.807a1.31 1.31 0 0 0-1.032 1.518c-.276.16-.51.384-.678.654-.168.27-.27.577-.294.895-.96.423-.96 1.765-.96 1.765-1.176.331-.763 1.632-.763 1.632-.877.382-.536 1.724-.536 1.724-.26.217-.47.487-.615.792a2.402 2.402 0 0 0-.233.974c.379.24.742.505 1.086.795zm-1.26 2.066c.92 1.755 2.066 1.683 2.066 1.683a2.381 2.381 0 0 0 2.27-.888 1.827 1.827 0 0 0 .166-2.014c-.34-.63-.753.124-.753.124-.548 1.642-1.219 1.56-1.219 1.56-.929.371-1.602-1.23-1.602-1.23a2.635 2.635 0 0 0-2.477-1.507 6.271 6.271 0 0 1 1.58 2.22zm.125 3.097a2.16 2.16 0 0 1-.312.837 3.44 3.44 0 0 1 1.777 1.972c.972 2.013 1.849 1.383 1.849 1.383l-.404-.63a.592.592 0 0 1 0-.795c.372-.289.797.124.797.124-.837-1.89.576-2.302.576-2.302a3.189 3.189 0 0 0-.33-1.807 3.503 3.503 0 0 1-2.777.33c-.301.398-.696.717-1.147.93zm1.465-4.409.413.754s.218.465.64 0c.273-.348.475-.749.59-1.177 0 0-.517-.289-1.612.423zm-3.357.341a2.632 2.632 0 0 0-1.889-.671c.5.553.954 1.147 1.353 1.776 0 0 .321-.95.568-1.126zm6.682 5.163c-.13.115-.271.215-.424.3a.662.662 0 0 0 0 .918s.878 1.425.124 2.065c.35 1.48.35 3.021 0 4.502a6.205 6.205 0 0 0-.505 1.89l.464-.847h.29l-.198 1.032.62-.144a4.71 4.71 0 0 0 .547-1.56s-.144-.877.435-1.032a1.02 1.02 0 0 1 0-1.032s.795-1.89-.083-6.196a1.194 1.194 0 0 1-1.238.083zm0-2.179s.164.878.164 1.136l.207.248h.34v-.96zm16.344 12.669 1.61-1.032.115.216a7.28 7.28 0 0 0-1.281 1.126s.27.206 1.972-.341c.357-.11.669-.33.889-.63 0 0 .33-.227 0-.733a1.399 1.399 0 0 1-.27-.836.665.665 0 0 0 .671-.176s.126 0 .3-.371a1.122 1.122 0 0 1 .424-1.033s-.3-6.722.133-7.228c0 0 .27-1.383-.834-1.63 0 0 1.279-1.188.175-1.674 0 0 1.33-1.25-.198-1.755 0 0 1.631-1.146.539-2.127a1.435 1.435 0 0 0-.155-1.93s.393-1.694-.662-1.87c0 0 .857-1.187-.155-1.486 0 0 .588-1.632-.579-2.138 0 0 1.281.073 1.56 1.766 0 0 .877.423.258 1.528.273.238.469.552.56.9.095.35.084.72-.033 1.062a1.978 1.978 0 0 1 .227 2.065s.9 1.404-.382 2.137a1.31 1.31 0 0 1 .124 1.683 1.148 1.148 0 0 1 .154 1.269c-.07.134-.163.254-.278.352a1.75 1.75 0 0 1 0 1.59s1.31 1.084 2.313.238c.216-.255.362-.56.422-.888a1.894 1.894 0 0 0-.072-.981s.631-.599.281-1.157a.85.85 0 0 0 .103-.543.845.845 0 0 0-.26-.49 1.571 1.571 0 0 0-.247-1.93 2.281 2.281 0 0 0-.401-1.91 1.682 1.682 0 0 0-.58-1.683s.35-1.415-.507-2.013a1.954 1.954 0 0 0-.172-.924c-.13-.29-.33-.543-.581-.739a2.064 2.064 0 0 0-1.176-1.91 1.823 1.823 0 0 0-.42-.98 1.82 1.82 0 0 0-.893-.58 1.64 1.64 0 0 0-.484-.83 1.659 1.659 0 0 0-.866-.418 1.121 1.121 0 0 0-.858-1.157s-.145-1.187-1.86-1.084a1.598 1.598 0 0 0-.53-.715 1.595 1.595 0 0 0-.832-.317 1.536 1.536 0 0 0-1.3-.496l-.445-.31v9.706s0 .3-.207.33c0 0-.083 1.435.846 1.807-.13.276-.168.587-.107.886.058.3.213.571.44.777 0 0-.281 1.404.524 1.91 0 0-.401 1.156.332 1.61a1.904 1.904 0 0 0 .526 1.931s0 1.157.982 1.311c0 0 .629 1.301 1.683 1.033 0 0 1.187.805.278 7.816a1.186 1.186 0 0 0-.63 1.414s-.62.373-.96 1.942h.197l1.465-1.28a1.113 1.113 0 0 1 .31-1.467c.087-.499.249-.982.475-1.435.382-2.08.4-4.212.052-6.298a1.574 1.574 0 0 1-.29-.744 1.82 1.82 0 0 1-1.031-.825 1.55 1.55 0 0 1-1.385-1.405c-.774-.361-.702-1.414-.702-1.414-1.032-.579-.444-1.931-.444-1.931-.835-.454-.608-1.993-.608-1.993-.826-.527-.382-1.652-.382-1.652-.65-.3-.393-1.414-.393-1.414-.857-.899-.134-2.365-.134-2.365a2.182 2.182 0 0 0 1.032 2.158c-.465.754.33 1.466.33 1.466-.525.95.538 1.59.538 1.59a1.884 1.884 0 0 0 .445 2.065c-.57 1.28.493 1.621.493 1.621-.413.94.714 1.435.714 1.435-.341 1.167 1.166 1.198 1.166 1.198-.258.682 1.033 1.425 1.033 1.425-.115.049-.236.08-.362.093.256.283.604.466.98.516a37.085 37.085 0 0 1 0 6.546s-.246 1.033-.329 1.219a.867.867 0 0 0 0 .454.895.895 0 0 1-.296.313.9.9 0 0 1-.406.141c-.133.092-.243.21-.326.347-.085.137-.139.29-.159.448zm-22.716-14.672.31.31c.28.67-.568.733-.568.733-.413.082-.381.557.063.64h.051a.573.573 0 0 1 .476.361c.155.351-.28.713-.28.713a.563.563 0 0 0-.065.37c.02.129.083.245.18.332.185.144.423-.165.423-.165v-.62c0-.62.68-.547.68-.547.294.037.588-.029.837-.186a3.877 3.877 0 0 1-1.147-1.198l-.619-1.156zm2.704 3.646a.297.297 0 0 1-.135-.268.361.361 0 0 1 0 .092 1.026 1.026 0 0 0 .227 1.084l.352-.361.35-.351a.752.752 0 0 1 0-.134.728.728 0 0 0-.361-1.033l-.218.444zm36.182 13.4-1.705 1.663-1.663-1.672 1.715-1.714zm-1.685-.32-.298.28.298.299.332-.279zm-2.354-1.7-.825.825-.837-.826.837-.816zm5.58 3.18-.825.836.826.826.825-.826zm-48.296-1.429c.6.093 2.8.754 2.8.754.176-.268 1.764-1.89 1.764-1.89-.37-.206-2.517-.95-2.517-.95-.238.207-2.047 2.086-2.047 2.086zm1.78-63.126 1.402 1.404-1.207.806 1.207.402-1.402 1.435-.61-1.032-2.2 2.406a4.408 4.408 0 0 1-1.209.196c.016-.353.085-.701.206-1.033l2.408-2.405-1.034-.6 1.198-1.404.599 1.198.61-1.404zm-15.247 1.61 1.403-1.404.805 1.197.404-1.197 1.405 1.404-1.21.402 2.406 2.406a.708.708 0 0 1 .567.474c.04.123.047.256.016.383a.696.696 0 0 1-.52.521.703.703 0 0 1-.858-.583l-2.416-2.199-.393 1.033-1.402-1.405 1.196-.402-1.403-.6zm7.216 11.628h2.002l-.402 1.405 1.207-.403v1.807l-1.207-.403v3.211c-.197.61-.404.806-.599.806a1.38 1.38 0 0 1-.61-.806v-3.21l-1.032.402v-1.807l1.209.403-.6-1.405zm.2-7.414h1.806l-.401 1.6 1.207-.599v2.003l-1.032-.402v3.015a2.77 2.77 0 0 1-.6 1.032c-.195 0-.401-.403-.599-1.032v-3.015l-1.207.402v-2.003l1.207.599-.401-1.6zm-10.673-4.424 4.658-4.656 7.009 7.01 7.032-7.01 4.873 4.873-8.692 8.26v11.358h-6.61V20.11Zm9.17 8.023v10.707h4.779v-10.78l7.857-7.774-3.21-3.387-6.98 6.97-7.082-7.094-3.181 3.294zm55-8.03v-.072c-.146-.433-.69-2.695 2.787-3.17a7.579 7.579 0 0 1 1.734-2.24c.66.722 1.216 1.532 1.654 2.406a3.537 3.537 0 0 1 2.88 3.17s-1.756-1.033-2.169.278l.186 4.43h4.203a1.814 1.814 0 0 0 .568-1.962s2.757-1.27 2.912 2.86a9.085 9.085 0 0 1 2.426 1.425 4.947 4.947 0 0 1-2.58 1.807s-.33 2.963-2.913 2.798c0 0 .877-1.61-.382-2.127h-4.42v4.388a1.355 1.355 0 0 0 .79.668 1.333 1.333 0 0 0 1.028-.09s1.341 2.881-2.468 2.881a8.068 8.068 0 0 1-1.715 2.54 6.837 6.837 0 0 1-1.743-2.674s-2.758-.227-2.798-2.788c0 0 1.485.558 2.156-.506l-.195-4.388h-4.223a1.395 1.395 0 0 0-.433 2.065s-2.86.94-3.099-2.736a7.84 7.84 0 0 1-2.405-1.724 7.726 7.726 0 0 1 2.571-1.704s.382-2.901 2.962-2.87c0 0-.929 1.744.361 2.158h4.452v-4.42a1.392 1.392 0 0 0-.967-.714 1.374 1.374 0 0 0-1.16.312zm3.097-.185v6.02h-6.018a1.87 1.87 0 0 1-1.126-1.653 2.977 2.977 0 0 0-.68 1.032c-.15.388-.218.803-.198 1.22a2.873 2.873 0 0 0-2.066.784 3.1 3.1 0 0 0 1.952.805c.094 2.706 1.032 2.613 1.032 2.613-.33-1.188 1.034-2.066 1.034-2.066h5.978v5.917a2.56 2.56 0 0 1-1.735 1.146c.29.733 2.22 1.032 2.22 1.032a2.454 2.454 0 0 0 1.031 2.066c.539-.352.725-2.138.725-2.138 2.127.465 2.592-.909 2.592-.909a2.402 2.402 0 0 1-2.067-1.197v-5.844h5.917c.949.258 1.21 1.796 1.21 1.796.558-.719.877-1.597.906-2.509a2.617 2.617 0 0 0 1.9-.691 2.631 2.631 0 0 0-1.93-.91c.238-2.178-.848-2.694-.848-2.694a3.143 3.143 0 0 1-1.032 2.2h-6.112v-6.092a2.704 2.704 0 0 1 1.878-1.033 4.126 4.126 0 0 0-2.436-.826 2.906 2.906 0 0 0-.732-1.952 3.557 3.557 0 0 0-.9 1.973c-1.972-.424-2.548.743-2.548.743a2.312 2.312 0 0 1 2.024 1.167zm-77.622 21.517h-3.655c-3.097-20.196-20.195-27.63-37.025-27.63-18.658 0-36.748 14.724-36.748 41.94 0 26.371 15.147 50.356 39.411 50.356 10.522 0 26.94-6.195 39-25.255l.06 16.52c-11.676 9.84-28.538 14.58-43.54 14.58-48.529 0-55.695-37.584-55.695-52.876C108.137 27.878 124.276 0 167.9 0c8.828 0 25.102 2.52 38.43 7.857zM109.26 6.018c-9.117.145-11.502 3.51-11.637 11.358l-.567 45.028c-.28 20.475-8.828 41.094-39.69 41.094-25.947 0-45.72-11.223-45.72-41.228V17.376C11.647 9.529 9.117 6.163 0 6.018V1.806c11.224.423 15.983.423 20.475.423 4.491 0 9.293 0 20.485-.423v4.212c-9.117.145-11.647 3.51-11.647 11.358V65.77c0 21.043 13.33 32.4 29.035 32.4 24.408 0 33.102-15.715 33.102-40.113 0-7.858-.145-13.423-.279-19.618l-.423-20.34c-.145-8.416-1.962-12.06-12.204-12.06V1.826c5.162.145 10.8.423 15.147.423 4.347 0 10.108-.278 15.57-.423zM299.921 154.44c-2.066.217-2.85.908-4.274 3.634l-7.31 13.982v5.234c0 3.242.557 3.85 3.799 4.016v1.033h-12.668v-1.033c3.374 0 3.973-.641 3.973-4.067v-5.163l-5.874-12.216c-2.25-4.667-2.809-5.162-5.535-5.451v-.95H285.135v1.032c-2.55.217-3.202.61-3.202 1.952.016.69.178 1.37.476 1.993l5.37 11.358 5.369-11.162a4.715 4.715 0 0 0 .556-2.065c0-1.25-.774-1.859-2.591-1.983v-1.032h8.808zm-52.034-1.027h3.718c1.775 0 3.592 0 5.585-.124 1.384-.052 2.508-.093 3.376-.093 5.235 0 8.652 2.984 8.652 7.444a7.23 7.23 0 0 1-3.686 6.402c-.711.371-1.463.663-2.24.867a6.15 6.15 0 0 1 1.508 2.064l2.334 4.41c2.56 4.76 2.993 5.369 4.128 6.194.433.328.936.55 1.468.65.44.1.89.144 1.341.136v1.032c-.915.148-1.84.222-2.766.217a8.775 8.775 0 0 1-6.496-2.508c-1.29-1.342-2.508-3.417-4.842-8.262-1.166-2.425-2.064-3.096-4.326-3.096h-.258v7.795c0 3.8.474 4.368 3.759 4.532v1.218h-11.854v-1.032c2.643 0 3.253-.774 3.253-3.85v-19.112c0-3.098-.61-3.852-3.253-3.893v-1.032zm7.485 13.928h1.25a12.26 12.26 0 0 0 4.42-.598c1.764-.744 2.807-2.561 2.807-4.977a7.49 7.49 0 0 0-2.807-6.06c-1.26-.868-2.21-1.126-4.46-1.126h-1.21zm-13.011-8.65-.094 10.17c0 4.76-.299 6.268-1.466 8.384-1.992 3.687-5.75 5.628-10.778 5.628-6.135 0-10.894-3.202-12.155-8.262a19.58 19.58 0 0 1-.516-5.16v-10.616c0-3.376-.35-3.892-3.036-4.419a2.42 2.42 0 0 1-.473-.082V153.3h.826c1.642.124 2.21.124 3.675.124h3.985l2.416-.083h1.032v1.033c-2.775.3-3.334 1.032-3.334 4.233v11.812c0 3.594.299 5.111 1.259 6.794a8.613 8.613 0 0 0 3.307 3.2 8.61 8.61 0 0 0 4.479 1.043 8.767 8.767 0 0 0 8.993-7.485c.136-.93.195-1.87.177-2.81v-1.083L240.4 159c-.083-3.676-.476-4.234-3.294-4.544h-.518v-1.032h.475l1.86.082h6.926v1.033c-2.631 0-3.448.991-3.488 4.15zm-52.216-5.322H201.336a12.883 12.883 0 0 1 4.75.598 6.857 6.857 0 0 1 4.894 6.453c0 3.584-2.901 6.196-7.31 6.702 1.348.083 2.674.374 3.933.868a7.022 7.022 0 0 1 4.627 6.751c0 4.885-3.675 7.528-10.326 7.528h-12.533v-1.032c2.643 0 3.282-.774 3.282-3.853v-19.131c0-3.098-.64-3.852-3.282-3.893v-1.033c.255.03.513.044.774.042zm7.361 13.422c.63.071 1.266.099 1.899.083 3.098 0 4.285-.434 5.452-1.993a6.63 6.63 0 0 0-1.008-8.566 6.65 6.65 0 0 0-2.708-1.511 11.596 11.596 0 0 0-2.252-.176h-1.383zm0 10.459c0 3.098.6 3.812 3.2 3.812 4.016 0 6.051-1.818 6.051-5.495 0-3.675-2.293-6.7-5.358-7.227-.83-.144-1.67-.215-2.51-.218-.463.007-.925.038-1.383.094zm-35.012-23.837h3.717c1.776 0 3.593 0 5.586-.124 1.383-.052 2.509-.093 3.376-.093 5.235 0 8.653 2.984 8.653 7.444a7.286 7.286 0 0 1-3.676 6.454c-.717.369-1.472.66-2.251.867a6.106 6.106 0 0 1 1.507 2.064l2.334 4.409c2.56 4.761 2.995 5.37 4.13 6.195.433.327.934.55 1.466.65.442.1.89.144 1.341.135v1.032c-.913.148-1.84.222-2.766.218a8.753 8.753 0 0 1-6.494-2.468c-1.291-1.342-2.51-3.417-4.843-8.26-1.167-2.427-2.065-3.098-4.326-3.098h-.258v7.797c0 3.799.475 4.366 3.758 4.532v1.219H161.894v-1.032c2.644 0 3.253-.777 3.253-3.853v-19.204c0-3.098-.609-3.852-3.252-3.893v-1.032zm7.485 13.928h1.25c1.497.073 2.995-.13 4.419-.598 1.776-.744 2.808-2.561 2.808-4.977a7.485 7.485 0 0 0-2.808-6.061c-1.26-.867-2.21-1.125-4.46-1.125h-1.209zM155.307 153.8l.176 1.982c.093 1.084.217 2.168.434 3.727l.093.692-1.394.124a6.576 6.576 0 0 0-1.467-3.5c-1.342-1.518-2.426-1.817-6.535-1.817h-3.026v11.677h2.943c3.851 0 4.626-.516 4.801-3.458v-.568h1.425v.433l-.083 1.91v4.398l.083 2.118v.734h-1.425c0-3.294-.815-3.945-5.018-3.945h-2.808v8.827c0 2.944.692 3.552 4.016 3.552 5.927 0 7.837-1.301 8.828-6.06l1.384.258a92.76 92.76 0 0 0-.558 6.495v.866c-1.869-.051-4.46-.051-7.702-.051-1.384 0-2.21 0-7.403.051h-3.635c-1.642 0-1.9 0-2.984.083v-1.032c2.602-.051 3.253-.785 3.253-3.852v-19.101c0-3.098-.651-3.852-3.253-3.903v-1.033h19.814zm-22.324 7.53h-1.425c-.217-2.601-.867-4.026-2.117-4.852-1.032-.692-1.559-.816-3.81-.816h-3.417v21.755c0 3.159.609 3.893 3.242 3.944v.95h-11.379v-.95c2.644-.051 3.253-.825 3.253-3.902v-21.724h-4.42c-3.242 0-4.45 1.383-4.976 5.71h-1.466l.392-8.003h25.906zm-28.938-6.712h-.3c-2.55.134-3.283 1.032-3.283 3.892v24.451H99.43l-22.457-24.616-.073 18.037c0 3.759.733 4.667 3.852 4.802v1.084h-9.128v-1.032c2.943-.216 3.593-1.124 3.593-4.76v-18.833c0-2.116-.908-2.984-3.2-3.097h-.28v-1.085H79.39l19.194 21.322v-16.138c0-3.16-.557-3.81-3.593-4.027v-1.167h.692c1.218.083 3.097.134 4.068.134l1.776-.051h2.55zm-38.504 21.59c1.735 3.975 2.602 4.844 5.37 5.162v.952H58.664v-1.035h.35c1.6 0 2.375-.516 2.375-1.683a4.265 4.265 0 0 0-.34-1.433l-2.385-5.917h-9.21l-1.993 5.493a6.647 6.647 0 0 0-.475 1.817c0 1.126.774 1.6 2.591 1.642h.517v1.033h-9.82v-1.033c2.385 0 3.945-1.384 5.235-4.503l9.871-24.067zm-15.694-5.235h8.043l-4.285-10.428zm-10.643 7.532c-4.42 3.096-8.26 4.366-12.98 4.366-9.436 0-15.838-5.925-15.838-14.754 0-9.076 6.794-15.27 16.747-15.27 3.9.067 7.751.862 11.358 2.343V162.365h-.96c-.692-4.801-4.843-8.136-10.16-8.136-4.76 0-8.054 2.127-9.87 6.412-.79 1.97-1.2 4.072-1.209 6.195 0 8.26 4.894 14.538 11.244 14.538 3.098 0 5.669-1.259 8.446-4.068a16.255 16.255 0 0 0 2.767-3.552h.3zm260.435-61.149c0 .3 0 .63.074 1.033 0 .826 0 1.383.072 1.724l.143 1.549.072.857-1.104.175a5.324 5.324 0 0 0-1.198-2.994c-1.198-1.394-2.58-1.807-6.33-1.807h-2.798v10.232h2.778c3.75 0 4.46-.526 4.575-3.448h1.115a105.895 105.895 0 0 0-.103 4.728V132.884h-1.126c-.187-2.695-1.032-3.335-4.719-3.335h-2.52v7.868c0 2.736.568 3.376 2.964 3.376h.341v.868H281.5v-.868c2.25 0 2.808-.67 2.808-3.335v-16.623c0-2.695-.527-3.377-2.809-3.408v-.867h3.666l2.89.072H299.578zm-32.35 24.767c-8.311 0-14.569-5.627-14.569-13.123 0-7.496 5.802-12.886 13.597-12.886 8.055 0 13.826 5.472 13.826 13.113 0 7.64-5.275 12.896-12.854 12.896zm-1.528-24.78c-4.914 0-7.91 4.047-7.91 10.645 0 7.455 3.934 12.886 9.294 12.886 4.79 0 7.867-4.13 7.867-10.635v-.454c-.187-7.455-3.997-12.473-9.251-12.473zm-20.28.188c-1.765.186-2.467.785-3.706 3.097l-6.338 12.102v4.543c0 2.808.484 3.335 3.302 3.48v.867h-10.944v-.868c2.923 0 3.448-.557 3.448-3.52v-4.502l-5.163-10.563c-1.94-4.047-2.425-4.502-4.79-4.729v-.816H232.637v.909c-2.22.186-2.776.527-2.776 1.683.011.598.15 1.186.413 1.724l4.644 9.82 4.647-9.665c.3-.553.467-1.168.487-1.796 0-1.095-.673-1.611-2.241-1.725v-.867h7.64zm-27.278 5.924h-1.239c-.186-2.25-.754-3.48-1.84-4.192-.855-.599-1.35-.712-3.291-.712h-2.964v18.843c0 2.736.527 3.376 2.807 3.418v.826H201.837v-.826c2.293 0 2.818-.713 2.818-3.377V118.56h-3.85c-2.81 0-3.853 1.198-4.306 4.946h-1.27l.33-6.928h22.457zm-25.826-5.923c-2.293.072-2.809.712-2.809 3.376v16.52c0 2.664.516 3.304 2.81 3.336v.867h-9.821v-.867c2.252 0 2.809-.672 2.809-3.335v-16.52c0-2.665-.557-3.336-2.809-3.377v-.857h9.82zm-13.675 5.594h-1.198a7.715 7.715 0 0 0-1.084-3.097 6.278 6.278 0 0 0-5.214-2.736 4.13 4.13 0 0 0-4.389 3.82c0 1.353.754 2.395 2.51 3.49l3.716 2.137c3.45 1.91 4.833 3.036 5.7 4.647.497.984.742 2.077.712 3.18 0 4.502-3.345 7.496-8.26 7.496a39.77 39.77 0 0 1-7.682-.857l-.3-6.298 1.24-.114.072.258a6.476 6.476 0 0 0 2.85 4.388 7.104 7.104 0 0 0 4.13 1.384 4.358 4.358 0 0 0 4.543-4.264 3.512 3.512 0 0 0-.568-1.921c-.785-1.156-1.57-1.642-6.112-3.965-4.13-2.065-6.072-4.388-6.072-7.227a7.62 7.62 0 0 1 4.574-6.712 11.541 11.541 0 0 1 4.13-.671c1.997.047 3.988.234 5.958.558l.454.072zm-41.24-6.527h3.222c1.538 0 3.097 0 4.842-.113 1.198 0 2.169-.083 2.922-.083 4.533 0 7.496 2.592 7.496 6.453a6.297 6.297 0 0 1-3.19 5.545 8.897 8.897 0 0 1-1.952.743c.56.49 1.01 1.091 1.322 1.766l2.065 3.82c2.21 4.13 2.582 4.647 3.552 5.36.378.284.816.478 1.28.567.38.083.768.121 1.157.114v.857c-.792.129-1.593.191-2.396.185a7.568 7.568 0 0 1-5.616-2.127c-1.126-1.166-2.18-2.963-4.203-7.165-1.032-2.065-1.797-2.654-3.748-2.654h-.227v6.743c0 3.293.413 3.779 3.263 3.934v1.032H136.977v-.867c2.292 0 2.819-.671 2.819-3.335v-16.541c0-2.695-.527-3.335-2.819-3.377v-.898zm6.485 12.07h1.084a10.51 10.51 0 0 0 3.83-.516 4.346 4.346 0 0 0 2.437-4.316 6.473 6.473 0 0 0-2.437-5.245 5.72 5.72 0 0 0-3.861-.97h-1.033zm-12.69-11.723.144 1.724c.083.93.186 1.869.382 3.221l.072.6-1.197.113a5.671 5.671 0 0 0-1.28-3.036c-1.157-1.311-2.066-1.58-5.659-1.58h-2.623v10.119h2.55c3.336 0 4.007-.444 4.13-2.994v-.486h1.24v.372l-.072 1.652v3.862l.072 1.838v.63h-1.24c0-2.84-.711-3.408-4.346-3.408h-2.437v7.579c0 2.55.61 3.097 3.49 3.097 5.163 0 6.784-1.125 7.64-5.245l1.209.228a84.562 84.562 0 0 0-.496 5.616v.754H116.657l-2.582.072v-.857c2.24 0 2.809-.681 2.809-3.335v-16.603c0-2.705-.568-3.335-2.809-3.376v-.898h17.161zm-19.195.485c-2.24.144-3.407.94-4.192 2.85l-.527 1.342-8.322 20.433h-.784l-9.592-20.547c-1.466-3.18-2.065-3.707-4.203-4.047v-.857H95.8v.867c-1.982 0-3.098.671-3.098 1.869.028.56.168 1.107.413 1.61l7.011 15.592 5.628-15.591c.217-.603.356-1.23.412-1.869 0-1.033-.64-1.497-2.364-1.58v-.857h8.24zm-30.474.1c-2.282.073-2.808.713-2.808 3.377v16.52c0 2.664.526 3.304 2.808 3.336v.867H71.769v-.867c2.25 0 2.818-.672 2.818-3.335v-16.52c0-2.665-.567-3.336-2.818-3.377v-.857H81.588zm-12.438.124h-.259c-2.21.103-2.85.857-2.85 3.366v21.177h-.897L45.69 120.875v15.622c0 3.263.63 4.048 3.335 4.13v.94h-7.91v-.898c2.551-.186 3.098-.971 3.098-4.13v-16.262c0-1.838-.784-2.592-2.777-2.664h-.258v-.94h6.598l16.613 18.41v-13.95c0-2.736-.485-3.293-3.098-3.48v-1.032h.6c1.032.073 2.663.104 3.52.104h3.748zm-34.44 3.519-.083 8.807c0 4.13-.258 5.431-1.27 7.228-1.724 3.18-4.987 4.873-9.293 4.873-5.317 0-9.437-2.777-10.531-7.165a17.235 17.235 0 0 1-.444-4.492v-9.148c0-2.922-.3-3.366-2.623-3.82a2.304 2.304 0 0 1-.413-.073v-.867h.712c1.058.092 2.12.13 3.18.114h3.45l2.064-.083h.868v.857c-2.396.269-2.891.868-2.891 3.676v10.232c0 3.098.268 4.42 1.094 5.886a7.464 7.464 0 0 0 6.742 3.665 7.588 7.588 0 0 0 7.796-6.484c.118-.803.17-1.615.155-2.427v-1.001l-.227-9.592c-.073-3.19-.413-3.676-2.85-3.945h-.454v-.867h.413l1.61.072H37.714v.899c-2.261.01-2.973.919-3.004 3.655zm254.623 108.975c.898 0 1.147-.35 1.147-1.124v-6.785c0-.774-.25-1.104-1.147-1.115v-.424h5.215c3.52 0 5.163 2.15 5.163 5.07 0 1.488-.806 4.79-5.66 4.79h-4.74zm2.89-1.084c0 .734.321.918 1.364.918 2.2 0 4.129-.958 4.129-4.025a5.061 5.061 0 0 0-.305-2.161 5.08 5.08 0 0 0-1.18-1.835c-.671-.568-1.385-.734-2.996-.734h-.97zm-16.76 1.084c.908 0 1.155-.35 1.155-1.124v-6.785c0-.774-.247-1.104-1.155-1.115v-.424H278.074l6.516 7.3v-5.69c0-.834-.197-1.186-1.19-1.186v-.424h3.028v.424c-.9 0-1.147.34-1.147 1.115v8.416h-.559l-7.485-8.261.115 6.504c0 1.032.278 1.167 1.146 1.25v.413h-2.995zm-13.023-.004c.96-.063 1.218-.195 1.981-2.064l3.047-7.353h.238l3.747 8.385c.361.794.693 1.032 1.416 1.032v.413H268.624v-.413c.785 0 1.034-.144 1.034-.516a3.897 3.897 0 0 0-.393-1.135l-.547-1.302h-3.17l-.402 1.124a4.14 4.14 0 0 0-.373 1.302c0 .36.166.516 1.033.527v.413h-3.326zm6.02-3.48-1.497-3.552-1.272 3.552zm-16.613 3.484c.909 0 1.158-.35 1.158-1.124v-6.785c0-.774-.249-1.104-1.158-1.115v-.424h4.131v.424c-.897 0-1.147.341-1.147 1.115v6.806c0 .722.393.96 1.549.96 1.828 0 2.737-.238 3.015-1.952h.476l-.227 2.528h-6.682a9.87 9.87 0 0 0-1.032 0zm-13.103-.004c.951-.062 1.218-.195 1.972-2.064l3.047-7.352h.238l3.747 8.384c.361.795.702 1.032 1.416 1.032v.413h-4.183v-.413c.775 0 1.033-.143 1.033-.516a4.233 4.233 0 0 0-.393-1.135l-.557-1.301h-3.17l-.404 1.124a4.64 4.64 0 0 0-.37 1.301c0 .361.164.516 1.032.527v.413h-3.314zm6.02-3.48-1.497-3.551-1.27 3.551zm-16.62 3.485c.9 0 1.147-.35 1.147-1.124v-6.785c0-.774-.247-1.104-1.146-1.115v-.424h6.96l.062 2.333h-.444c-.227-1.33-.817-1.806-2.48-1.806h-1.206v4.007h1.032c1.26 0 1.445-.455 1.539-1.333h.473v3.231h-.473c0-1.092-.341-1.373-1.548-1.373h-1.035v3.285c0 .64.27 1.032 1.571 1.032s2.394-.258 2.726-2.004h.465c-.113.84-.182 1.683-.207 2.531h-7.444zm-11.855.155 6.195-8.798h-3.615c-.95 0-1.56.332-1.734 1.932h-.465l.083-2.737h8.425l-6.401 9.17h3.81c1.434 0 1.826-.662 2.064-2.067h.485l-.133 2.778h-8.654zm-23.349-9.601h4.131v.422h-.402c-.464 0-.744.206-.744.579.022.258.09.509.197.742l1.992 5.639 2.345-7.56h.247l2.695 7.591 1.662-5.587c.081-.256.137-.518.166-.785 0-.473-.372-.608-1.034-.62v-.421H207.282v.422c-.949 0-1.175.31-1.465 1.198l-2.809 8.333h-.402l-2.562-7.043-2.342 7.043h-.413l-3.036-8.261c-.404-1.136-.61-1.228-1.342-1.27zm-10.644 9.446c.898 0 1.146-.35 1.146-1.124v-6.785c0-.774-.248-1.104-1.146-1.115v-.424h6.96l.06 2.333h-.443c-.227-1.33-.815-1.806-2.478-1.806h-1.209v4.007h1.034c1.26 0 1.445-.455 1.537-1.333h.476v3.231h-.476c0-1.092-.34-1.373-1.548-1.373h-1.032v3.285c0 .64.258 1.032 1.56 1.032 1.299 0 2.405-.258 2.735-2.004h.464c-.11.84-.18 1.683-.206 2.531h-7.445zm-13.874 0c.898 0 1.157-.35 1.157-1.124v-6.785c0-.774-.259-1.104-1.157-1.115v-.424H171.024l6.526 7.3v-5.69c0-.834-.197-1.186-1.188-1.186v-.424h3.026v.424c-.899 0-1.147.34-1.147 1.115v8.416h-.557l-7.486-8.261.114 6.504c0 1.032.268 1.167 1.146 1.25v.413h-2.994zm-20.281 0c.909 0 1.156-.35 1.156-1.124v-6.785c0-.774-.247-1.104-1.156-1.115v-.424h4.13v.424c-.898 0-1.146.34-1.146 1.115v2.798h5.162v-2.798c0-.774-.247-1.104-1.146-1.115v-.424h4.131v.424c-.91 0-1.157.34-1.157 1.115v6.805c0 .774.248 1.115 1.157 1.124v.413h-4.131v-.413c.899 0 1.146-.35 1.146-1.124v-3.408h-5.162v3.408c0 .774.248 1.115 1.146 1.124v.413h-4.13zm-3.48-6.368h-.35c-.31-1.994-1.993-2.726-3.656-2.726-1.848 0-3.634 1.456-3.634 4.129 0 2.674 1.497 4.967 3.893 4.967a4.816 4.816 0 0 0 3.85-2.488l.125 1.631a7.29 7.29 0 0 1-4.42 1.445c-4.79 0-5.492-3.716-5.492-5.223 0-2.242 1.59-5 5.895-5 1.298.046 2.579.308 3.79.777zm-21.996 6.368c.899 0 1.147-.35 1.147-1.124v-6.785c0-.774-.248-1.104-1.147-1.115v-.424h4.43c2.406 0 3.17 1.209 3.17 2.562a2.53 2.53 0 0 1-1.92 2.416l1.724 3.18c.63 1.146.96 1.413 1.745 1.528v.33h-.64c-1.838 0-2.602-.64-3.377-2.291l-.537-1.147c-.578-1.23-.774-1.333-1.704-1.342v3.097c0 .774.248 1.115 1.147 1.126v.413h-4.13zm2.891-4.698c.302.067.61.1.92.103 1.238 0 1.992-.568 1.992-1.91a2.312 2.312 0 0 0-.596-1.774 2.287 2.287 0 0 0-.779-.555 2.322 2.322 0 0 0-.938-.19 2.677 2.677 0 0 0-.599 0zm-5.903-4.329c-.908 0-1.135.341-1.156 1.116v4.449c0 2.015-.878 4.059-3.913 4.059-2.561 0-4.523-1.115-4.523-4.08v-4.428c0-.775-.247-1.104-1.146-1.116v-.424h4.13v.424c-.908 0-1.156.341-1.156 1.116v4.738a2.893 2.893 0 0 0 2.87 3.202c2.406 0 3.263-1.56 3.263-3.965v-3.944c0-.837-.196-1.187-1.208-1.187v-.424h3.036zM94.86 230.15c.898 0 1.146-.35 1.146-1.124v-6.785c0-.774-.248-1.104-1.146-1.115v-.424h4.079v.424c-.899 0-1.147.34-1.147 1.115v2.798h5.163v-2.798c0-.774-.258-1.104-1.156-1.115v-.424h4.13v.424c-.899 0-1.146.34-1.146 1.115v6.805c0 .774.247 1.115 1.146 1.124v.413h-4.13v-.413c.898 0 1.156-.35 1.156-1.124v-3.408h-5.163v3.408c0 .774.248 1.115 1.147 1.124v.413h-4.079zm-3.502-6.368h-.361c-.31-1.994-1.993-2.726-3.655-2.726-1.838 0-3.625 1.456-3.625 4.129 0 2.674 1.487 4.967 3.883 4.967a4.817 4.817 0 0 0 3.851-2.488l.124 1.631a7.29 7.29 0 0 1-4.42 1.445c-4.79 0-5.492-3.716-5.492-5.223 0-2.242 1.59-5 5.895-5 1.301.046 2.586.308 3.8.777zm-19.43 6.366c.898 0 1.146-.35 1.146-1.124v-7.631h-1.219c-1.104 0-1.837.31-1.92 2.064h-.516l.093-2.746h8.88l.082 2.746h-.547c-.083-1.743-.816-2.064-1.931-2.064h-1.167v7.65c0 .775.258 1.116 1.156 1.127v.413h-4.13zm-12.23-2.26h.538a2.83 2.83 0 0 0 2.643 2.334 1.803 1.803 0 0 0 1.391-.368 1.808 1.808 0 0 0 .674-1.272c0-2.21-5.05-2.067-5.05-5.163 0-.702.404-2.881 3.49-2.881a8.249 8.249 0 0 1 2.561.361l.083 2.446h-.516a2.36 2.36 0 0 0-.78-1.679 2.358 2.358 0 0 0-1.75-.603 1.663 1.663 0 0 0-.637.056 1.614 1.614 0 0 0-1.149 1.411c0 2.065 5.162 2.2 5.162 5.287 0 1.63-1.166 2.943-3.459 2.943a11.932 11.932 0 0 1-3.014-.466zm-7.368 2.262c.898 0 1.146-.35 1.146-1.124v-6.785c0-.774-.248-1.104-1.146-1.115v-.424H56.407v.424c-.898 0-1.146.34-1.146 1.115v6.805c0 .774.248 1.115 1.146 1.124v.413H52.33zm-11.976 0c.898 0 1.146-.35 1.146-1.124v-6.785c0-.774-.248-1.104-1.146-1.115v-.424h4.43c2.405 0 3.17 1.209 3.17 2.562a2.53 2.53 0 0 1-1.931 2.416l1.734 3.18c.62 1.146.96 1.413 1.745 1.528v.33h-.64c-1.838 0-2.602-.64-3.376-2.291l-.537-1.147c-.578-1.23-.775-1.333-1.704-1.342v3.097c0 .774.248 1.115 1.146 1.126v.413h-4.13zm2.891-4.698c.299.065.603.1.909.103 1.25 0 2.003-.568 2.003-1.91a2.312 2.312 0 0 0-.596-1.774 2.321 2.321 0 0 0-1.717-.745 2.677 2.677 0 0 0-.599 0zm-16.928 4.698c.898 0 1.146-.35 1.146-1.124v-6.785c0-.774-.248-1.104-1.146-1.115v-.424H30.394v.424c-.898 0-1.146.34-1.146 1.115v2.798h5.163v-2.798c0-.774-.259-1.104-1.157-1.115v-.424h4.13v.424c-.898 0-1.156.34-1.156 1.115v6.805c0 .774.258 1.115 1.156 1.124v.413h-4.13v-.413c.898 0 1.157-.35 1.157-1.124v-3.408h-5.163v3.408c0 .774.248 1.115 1.146 1.124v.413H26.316zm-3.472-6.368h-.36c-.31-1.994-1.994-2.726-3.656-2.726-1.838 0-3.624 1.456-3.624 4.129 0 2.674 1.487 4.967 3.882 4.967a4.816 4.816 0 0 0 3.851-2.488l.124 1.631a7.29 7.29 0 0 1-4.419 1.445c-4.79 0-5.493-3.716-5.493-5.223 0-2.242 1.59-5 5.896-5 1.3.046 2.585.308 3.8.777zm275.668-14.674c-.64.95-1.797 2.643-3.098 2.643-.783 0-.97-.599-.97-1.198.039-.778.149-1.555.33-2.313l.33-1.405c-.866 1.694-2.91 4.957-5.16 4.957-1.365 0-1.84-1.239-1.84-2.27 0-2.251 2.48-7.434 7.332-7.434.496 0 1.156.071 1.508.071.25-.004.498-.029.743-.071l-1.425 6.73a5.179 5.179 0 0 0-.146 1.033.444.444 0 0 0 .02.188c.018.061.052.117.095.164a.435.435 0 0 0 .341.144c.433 0 1.032-.846 1.424-1.362zm-7.929 1.652c1.694 0 5.163-5.163 5.286-7.847a2.903 2.903 0 0 0-.722-.083 4.053 4.053 0 0 0-2.27.512c-.69.39-1.25.971-1.612 1.676a9.374 9.374 0 0 0-1.528 4.337c0 .642.124 1.405.898 1.405zm-11.097-13.077c.074-.292.12-.588.145-.886a.584.584 0 0 0-.047-.216.56.56 0 0 0-.314-.291.551.551 0 0 0-.217-.032c-.321.007-.642.057-.95.146l.144-.641 3.408-.784-2.54 11.565c1.032-1.715 3.036-4.544 4.831-4.544.175-.02.35-.002.514.052a1.243 1.243 0 0 1 .75.68c.069.159.103.332.1.507-.013.35-.07.695-.166 1.032l-1.198 4.853a5.239 5.239 0 0 0-.123.743.407.407 0 0 0 .02.193c.02.06.054.116.1.161a.416.416 0 0 0 .355.121c.6 0 1.095-.763 1.322-1.362l.556.164c-.184.6-1.382 2.52-2.726 2.52a1.298 1.298 0 0 1-1.279-1.425c.02-.384.083-.765.187-1.135l1.175-4.627c.063-.229.106-.464.126-.702a.46.46 0 0 0-.476-.496c-1.095 0-2.706 2.19-3.305 3.099a11.14 11.14 0 0 0-1.858 4.936l-1.59.33zm-4.795 11.425c-.64.95-1.798 2.643-3.099 2.643-.783 0-.97-.599-.97-1.198.037-.778.149-1.555.33-2.313l.33-1.405c-.866 1.694-2.91 4.957-5.162 4.957-1.362 0-1.838-1.239-1.838-2.27 0-2.251 2.48-7.434 7.33-7.434.496 0 1.158.071 1.508.071a4.84 4.84 0 0 0 .745-.071l-1.425 6.73a5.179 5.179 0 0 0-.146 1.033.483.483 0 0 0 .018.188.466.466 0 0 0 .252.274.435.435 0 0 0 .186.034c.433 0 1.032-.846 1.425-1.362zm-7.93 1.652c1.692 0 5.163-5.163 5.287-7.847a2.915 2.915 0 0 0-.723-.083 4.05 4.05 0 0 0-3.884 2.188 9.425 9.425 0 0 0-1.528 4.337c0 .642.126 1.405.848 1.405zm-7.101-7.643h-2.064l.783-.868h1.467l.393-1.88 1.631-.413-.455 2.293h2.17l-.104.868h-2.273l-1.218 5.596c-.12.447-.209.902-.267 1.362a.455.455 0 0 0 .112.36c.042.049.096.087.155.114a.444.444 0 0 0 .186.042c.62 0 1.364-1.238 1.651-1.714l.519.27c-.725 1.28-1.88 2.602-3.036 2.602-.723 0-1.158-.516-1.158-1.344.03-.599.119-1.194.27-1.775zm-6.72 1.587c.092-.339.162-.685.206-1.032 0-.187-.083-.415-.332-.415-.576 0-1.238.95-1.61 1.53l-.454-.332.083-.144c.413-.722 1.672-2.293 2.787-2.293a1.1 1.1 0 0 1 .45.07 1.112 1.112 0 0 1 .727 1.066c-.049.412-.132.82-.248 1.218l-1.032 4.73c-.07.264-.12.533-.144.805 0 .393.227.579.476.579.493 0 .846-.476 1.032-.848l.37-.6.476.281c-.516.857-1.445 2.405-2.787 2.405a1.214 1.214 0 0 1-1.133-.87 1.23 1.23 0 0 1-.045-.503c.004-.444.067-.884.186-1.312zm1.878-7.072a.704.704 0 0 1 .312.031.711.711 0 0 1 .444.422c.04.098.056.204.05.31a1.417 1.417 0 0 1-1.322 1.465.736.736 0 0 1-.743-.783 1.36 1.36 0 0 1 1.259-1.445zm-5.553 11.476c-.642.95-1.797 2.643-3.099 2.643-.783 0-.97-.599-.97-1.198a12.39 12.39 0 0 1 .33-2.313l.33-1.405c-.866 1.694-2.91 4.957-5.162 4.957-1.362 0-1.838-1.239-1.838-2.27 0-2.251 2.48-7.434 7.33-7.434.496 0 1.158.071 1.508.071.25-.004.498-.029.745-.071l-1.425 6.73a5.18 5.18 0 0 0-.146 1.033.483.483 0 0 0 .018.188.466.466 0 0 0 .252.274.435.435 0 0 0 .186.034c.433 0 1.032-.846 1.425-1.362zm-7.93 1.652c1.692 0 5.163-5.163 5.287-7.847a2.915 2.915 0 0 0-.723-.083 4.05 4.05 0 0 0-3.884 2.188 9.425 9.425 0 0 0-1.528 4.337c0 .642.124 1.405.848 1.405zm-19.047-11.4c-.103-1.507-.35-1.96-1.671-1.96h-.31l.144-.62c.496 0 1.404.06 2.746.06 1.032 0 1.88 0 2.417-.06l-.124.62h-.372c-.743 0-1.095.226-1.095.949v.949l.682 9.603 6.278-12.617h.579l.7 12.823 5.288-9.055a5.56 5.56 0 0 0 .909-1.95c0-.539-.435-.703-1.138-.703h-.33l.124-.619c.496 0 1.384.06 2.706.06 1.321 0 1.94 0 2.293-.06l-.126.62a2.365 2.365 0 0 0-2.353 1.258l-8.405 13.092h-.485l-.6-11.44-6.257 11.44h-.62zm-13.626 2.686a2.945 2.945 0 0 1 2.32.812c.305.294.543.649.7 1.044.155.395.225.819.202 1.24 0 2.77-2.17 6.588-5.349 6.588a3.223 3.223 0 0 1-2.955-2.232 3.266 3.266 0 0 1-.143-1.3c0-3.302 2.789-6.152 5.225-6.152zm-.083.62c-2.127 0-3.489 3.655-3.489 5.968 0 1.754.496 2.497 1.508 2.497 2.457 0 3.633-5.08 3.633-6.433 0-1.763-.95-2.033-1.652-2.033zm-13.28 6.441c-.64.95-1.798 2.643-3.097 2.643-.785 0-.971-.599-.971-1.198.038-.778.148-1.555.33-2.313l.33-1.405c-.867 1.694-2.91 4.957-5.161 4.957-1.364 0-1.84-1.239-1.84-2.27 0-2.251 2.48-7.434 7.332-7.434.496 0 1.156.071 1.508.071.25-.004.498-.029.743-.071l-1.425 6.73a5.179 5.179 0 0 0-.146 1.033.444.444 0 0 0 .02.188c.018.061.052.117.095.164a.435.435 0 0 0 .341.144c.433 0 1.032-.846 1.424-1.362zm-7.93 1.652c1.694 0 5.163-5.163 5.286-7.847a2.903 2.903 0 0 0-.722-.083 4.053 4.053 0 0 0-2.27.512c-.69.39-1.25.971-1.612 1.676a9.374 9.374 0 0 0-1.528 4.337c0 .642.124 1.405.855 1.405zm-2.564-9.77c.02.153.02.306 0 .456 0 1.032-.557 1.61-1.817 2.064.125.33.188.68.186 1.032 0 3.718-5.41 3.884-5.41 5.163 0 1.281 5.575 1.364 5.575 3.987 0 1.28-1.362 2.477-4.315 2.477-2.747 0-4.44-1.032-4.44-2.333 0-1.302 1.197-2.004 2.416-2.354-.702-.332-1.136-.722-1.136-1.198 0-.929 1.136-1.467 2.767-2.064-.287 0-.572-.059-.836-.175a2.061 2.061 0 0 1-1.23-2.078 4.06 4.06 0 0 1 3.925-3.778 2.705 2.705 0 0 1 2.25.972c.31-.064.538-.23.538-.54a1.668 1.668 0 0 0-.517-.969zm-6.721 10.885c-.66.08-2.065.567-2.065 1.775 0 .857.826 1.797 3.098 1.797 1.59 0 2.663-.456 2.663-1.405.031-1.115-1.951-1.754-3.696-2.167zm2.395-9.21c-1.26 0-2.374 1.817-2.374 3.448 0 1.032.371 1.508 1.177 1.508 1.528 0 2.168-2.127 2.168-3.429.031-1.095-.403-1.528-.94-1.528zm-16.79 1.882c.248-.361 1.838-2.498 2.933-2.498.578 0 .908.373.908 1.239a18.957 18.957 0 0 1-.66 3.572c.557-1.032 2.705-4.853 4.687-4.853 1.115 0 1.508.662 1.508 1.301 0 1.095-1.508 5.39-1.508 6.402a.474.474 0 0 0 .12.368.47.47 0 0 0 .355.148c.31 0 .599-.104 1.177-.826l.517-.64.433.393c-1.032 1.281-2.065 2.477-3.2 2.477-.744 0-1.136-.392-1.136-.97 0-1.114 1.59-6.257 1.59-7.062a.511.511 0 0 0-.334-.483.525.525 0 0 0-.203-.033c-.703 0-1.962 1.465-3.098 3.222a14.667 14.667 0 0 0-1.9 5.08l-1.652.33 1.28-5.68c.19-.695.314-1.407.372-2.127 0-.267-.103-.475-.33-.475-.413 0-1.033.765-1.487 1.384zm-1.455 4.561c-.64.95-1.796 2.643-3.097 2.643-.785 0-.97-.599-.97-1.198.037-.778.147-1.555.33-2.313l.33-1.405c-.867 1.694-2.912 4.957-5.163 4.957-1.362 0-1.837-1.239-1.837-2.27 0-2.251 2.477-7.434 7.33-7.434.496 0 1.157.071 1.508.071a4.8 4.8 0 0 0 .743-.071l-1.425 6.73a5.176 5.176 0 0 0-.144 1.033.456.456 0 0 0 .114.352.438.438 0 0 0 .34.144c.434 0 1.033-.846 1.425-1.362zm-7.93 1.652c1.694 0 5.163-5.163 5.287-7.847a2.902 2.902 0 0 0-.723-.083 4.047 4.047 0 0 0-3.882 2.188 9.385 9.385 0 0 0-1.528 4.337c0 .642.124 1.405.877 1.405zm-14.421-6.213c.247-.361 1.838-2.498 2.932-2.498.578 0 .909.373.909 1.239a18.956 18.956 0 0 1-.661 3.572c.557-1.032 2.705-4.853 4.687-4.853 1.115 0 1.508.662 1.508 1.301 0 1.095-1.508 5.39-1.508 6.402a.475.475 0 0 0 .12.368.471.471 0 0 0 .355.148c.31 0 .6-.104 1.177-.826l.517-.64.433.393c-1.032 1.281-2.065 2.477-3.2 2.477-.744 0-1.136-.392-1.136-.97 0-1.114 1.59-6.257 1.59-7.062a.511.511 0 0 0-.333-.483.528.528 0 0 0-.204-.033c-.702 0-1.962 1.465-3.098 3.222a14.668 14.668 0 0 0-1.9 5.08l-1.651.33 1.28-5.68a11.7 11.7 0 0 0 .371-2.127c0-.267-.103-.475-.33-.475-.413 0-1.032.765-1.487 1.384zm-1.47 4.561c-.641.95-1.797 2.643-3.098 2.643-.785 0-.971-.599-.971-1.198.038-.778.148-1.555.33-2.313l.33-1.405c-.866 1.694-2.91 4.957-5.162 4.957-1.363 0-1.838-1.239-1.838-2.27 0-2.251 2.479-7.434 7.331-7.434.496 0 1.157.071 1.508.071a4.8 4.8 0 0 0 .743-.071l-1.425 6.73a5.175 5.175 0 0 0-.144 1.033.456.456 0 0 0 .114.352.44.44 0 0 0 .34.144c.434 0 1.033-.846 1.425-1.362zm-7.93 1.652c1.693 0 5.162-5.163 5.286-7.847a2.905 2.905 0 0 0-.723-.083 4.047 4.047 0 0 0-3.882 2.188 9.387 9.387 0 0 0-1.528 4.337c0 .642.124 1.405.847 1.405zm-19.046-11.399c-.104-1.507-.351-1.96-1.673-1.96h-.31l.145-.62c.495 0 1.404.06 2.746.06 1.033 0 1.88 0 2.416-.06l-.124.62h-.371c-.744 0-1.095.226-1.095.949v.949l.682 9.603 6.412-12.617h.578l.702 12.823 5.286-9.055a5.529 5.529 0 0 0 .91-1.95c0-.539-.435-.703-1.137-.703h-.33l.124-.619c.496 0 1.383.06 2.705.06s1.941 0 2.292-.06l-.124.62a2.373 2.373 0 0 0-2.354 1.259l-8.404 13.091h-.62l-.599-11.44-6.257 11.44h-.62zm-10.983 9.792c-1.136 1.28-2.293 2.6-4.13 2.6a2.64 2.64 0 0 1-2.453-1.844 2.635 2.635 0 0 1-.108-1.077c0-2.221 2.25-6.783 5.658-6.783a1.91 1.91 0 0 1 1.438.494 1.918 1.918 0 0 1 .627 1.384c0 1.385-1.363 3.263-4.79 3.263a6.21 6.21 0 0 1-1.095-.083 4.99 4.99 0 0 0-.29 1.467c0 1.032.455 2.323 1.57 2.323.909 0 1.983-.981 3.098-2.2zm-.537-5.452c0-.548-.248-.951-.868-.951-1.528 0-2.932 2.52-3.221 3.677.295.038.59.058.888.06a3.156 3.156 0 0 0 3.2-2.786zm-12.468 1.34c.111-.384.187-.78.227-1.179a.357.357 0 0 0-.082-.285.378.378 0 0 0-.27-.127c-.453 0-.97.558-1.734 1.404l-.433-.372c.082-.124 1.879-2.437 3.283-2.437.66 0 .888.518.888 1.178a12.16 12.16 0 0 1-.682 2.81c.228-.456.29-.6.475-.91.475-.825 1.776-3.098 3.82-3.098.155.002.308.027.455.072l-.33 1.891a2.36 2.36 0 0 0-.826-.146c-1.59 0-2.788 1.652-3.098 2.273a20.453 20.453 0 0 0-1.693 5.286l-1.652.33zm-3.75 4.067c-.64.95-1.796 2.643-3.097 2.643-.785 0-.97-.599-.97-1.198.037-.778.147-1.555.33-2.313l.33-1.405c-.867 1.694-2.912 4.957-5.162 4.957-1.364 0-1.838-1.239-1.838-2.27 0-2.251 2.478-7.434 7.33-7.434.496 0 1.157.071 1.508.071a4.8 4.8 0 0 0 .743-.071l-1.424 6.73a5.16 5.16 0 0 0-.145 1.033.445.445 0 0 0 .454.496c.434 0 1.033-.846 1.425-1.362zm-7.93 1.652c1.694 0 5.163-5.163 5.287-7.847a2.903 2.903 0 0 0-.723-.083 4.046 4.046 0 0 0-3.882 2.188 9.39 9.39 0 0 0-1.528 4.337c0 .642.124 1.405.847 1.405zM64.692 197.68a5.43 5.43 0 0 0 .145-.886.559.559 0 0 0-.175-.393.557.557 0 0 0-.404-.146 3.694 3.694 0 0 0-.95.146l.145-.641 3.407-.784-2.54 11.565c1.033-1.715 3.036-4.544 4.832-4.544a1.213 1.213 0 0 1 .961.312 1.228 1.228 0 0 1 .402.927c-.013.35-.068.695-.165 1.032l-1.198 4.853a5.11 5.11 0 0 0-.124.743.415.415 0 0 0 .12.355.43.43 0 0 0 .164.102c.062.02.127.027.191.018.6 0 1.095-.762 1.322-1.362l.558.164c-.186.6-1.384 2.52-2.726 2.52a1.303 1.303 0 0 1-.953-.43 1.311 1.311 0 0 1-.328-.995 5.22 5.22 0 0 1 .186-1.135l1.177-4.627c.064-.229.105-.464.124-.702a.445.445 0 0 0-.124-.355.463.463 0 0 0-.35-.141c-1.095 0-2.706 2.19-3.305 3.099a11.15 11.15 0 0 0-1.858 4.936l-1.59.33zm-22.449 1.678c-.103-1.507-.35-1.96-1.672-1.96h-.31l.145-.62c.495 0 1.404.06 2.746.06 1.033 0 1.88 0 2.416-.06l-.124.62h-.371c-.744 0-1.095.226-1.095.949v.949l.682 9.603 6.277-12.617h.578l.703 12.823 5.286-9.055a5.525 5.525 0 0 0 .909-1.95c0-.539-.434-.703-1.136-.703h-.33l.124-.619c.495 0 1.383.06 2.705.06 1.321 0 1.94 0 2.292-.06l-.124.62a2.373 2.373 0 0 0-2.354 1.259l-8.405 13.091h-.62l-.505-11.44-6.257 11.44h-.62zm-10.985 9.792c-1.135 1.28-2.292 2.6-4.13 2.6a2.637 2.637 0 0 1-1.92-.9 2.638 2.638 0 0 1-.64-2.02c0-2.222 2.25-6.784 5.658-6.784a1.91 1.91 0 0 1 1.437.494 1.916 1.916 0 0 1 .628 1.384c0 1.385-1.363 3.263-4.791 3.263a6.212 6.212 0 0 1-1.095-.083c-.169.471-.266.967-.289 1.467 0 1.032.455 2.323 1.57 2.323.908 0 1.982-.981 3.097-2.2zm-.537-5.452c0-.548-.247-.951-.867-.951-1.528 0-2.932 2.52-3.221 3.677.294.038.59.058.888.06a3.156 3.156 0 0 0 3.2-2.786zm-11.517-6.152H17.51a3.208 3.208 0 0 0-3.47 2.85h-.62l.58-3.616c2.064 0 4.13.063 6.194.063 2.065 0 4.13 0 6.195-.063l-.599 3.492h-.62c.054-.344.082-.687.083-1.032 0-1.405-.743-1.737-2.064-1.737H21.06l-2.127 11.214c-.072.341-.12.684-.144 1.032 0 .889.599 1.095 1.218 1.095h.434l-.103.62c-.826 0-1.797-.063-2.87-.063-1.075 0-1.756 0-2.417.062l.145-.619h.165c1.28 0 1.425-.413 1.838-2.582z"/>
</svg>
